<svg data-v-0dd9719b="" version="1.0" xmlns="http://www.w3.org/2000/svg" xmlns:xlink="http://www.w3.org/1999/xlink" width="100%" height="100%" viewBox="0 0 340.000000 250.000000" preserveAspectRatio="xMidYMid meet" color-interpolation-filters="sRGB" style="margin: auto;"> <rect data-v-0dd9719b="" x="0" y="0" width="100%" height="100%" fill="#feffff" fill-opacity="1" class="background"></rect> <rect data-v-0dd9719b="" x="0" y="0" width="100%" height="100%" fill="url(#watermark)" fill-opacity="1" class="watermarklayer"></rect> <g data-v-0dd9719b="" fill="#005c7d" class="iconlinesvg-g iconlinesvg" transform="translate(83.98463439941406,104.49491691589355)"><g class="tp-name"><g transform="translate(0, 0)"><g><g class="imagesvg"><g><rect fill="#005c7d" fill-opacity="0" stroke-width="2" x="0" y="0" width="35.6673609717839" height="41.01016530812664" class="image-rect"></rect> <svg x="0" y="0" width="35.6673609717839" height="41.01016530812664" filtersec="colorsb9011648236" class="image-svg-svg primary" style="overflow: visible;"><svg xmlns="http://www.w3.org/2000/svg" viewBox="0 0 94.80001068115234 109"><g><g><g><path d="M68.9 29.4c-10.2 8.7-14.6 22-10.9 32.9 2.8 8.3 9.5 13.9 14.6 17.2s10.9 5.1 16.7 7l.8.3 4.7 1.5v-2.4l-3.9-1.3-1.6-.5c-5.5-1.8-11.3-3.9-15.4-6.5s-11.1-8.4-13.7-16c-3.4-10.1.7-22.3 10.2-30.5a48.9 48.9 0 0 1 18.9-9.6l5.5-1.3v-2.3c-1.9.3-3.7.8-5.5 1.2a52.4 52.4 0 0 0-20.4 10.3z" fill="#005c7d"></path><path d="M77.5 31.6C69.9 36.9 63.4 46.9 66 57.2a26.2 26.2 0 0 0 3.6 7.6c4.1 6 12.2 11 19.7 13.6a30.2 30.2 0 0 0 5.5 1.5v-2.3a42.1 42.1 0 0 1-5.5-1.6c-6.9-2.6-14.1-7-17.8-12.5a21.7 21.7 0 0 1-3.3-6.9c-2.3-9.2 3.7-18.3 10.6-23.2a44.7 44.7 0 0 1 10.5-5.2 49.8 49.8 0 0 1 5.5-1.6v-2.4a49.8 49.8 0 0 0-5.5 1.6 43.2 43.2 0 0 0-11.8 5.8z" fill="#005c7d"></path><path d="M80.4 39c-4 4-7.9 11.1-5.4 18s8.2 11.1 14.3 14a22.5 22.5 0 0 0 5.5 1.9v-2.3a24.3 24.3 0 0 1-5.5-2.2c-5.1-2.6-10.3-7.1-12.2-12.1s1.1-11.9 4.9-15.7a21.9 21.9 0 0 1 7.3-4.6 31.4 31.4 0 0 1 5.5-1.7V32a30.2 30.2 0 0 0-5.5 1.5 26.3 26.3 0 0 0-8.9 5.5z" fill="#005c7d"></path><path d="M85.3 44.6a11.6 11.6 0 0 0-2.4 10.8c.8 2.7 3.6 4.9 6.4 6.6a39.1 39.1 0 0 0 5.5 2.7v-2.5a32.6 32.6 0 0 1-5.5-2.9c-2-1.4-3.7-3-4.2-4.6a9.2 9.2 0 0 1 1.9-8.5 10.6 10.6 0 0 1 2.3-1.7 19.6 19.6 0 0 1 5.5-1.7v-2.4a29.6 29.6 0 0 0-5.5 1.6 12.6 12.6 0 0 0-4 2.6z" fill="#005c7d"></path><path d="M78.8 0l-6.5.5a92.1 92.1 0 0 0-21.5 5 94.4 94.4 0 0 0-22.5 11.7C21 22.4 11.7 31.4 8.7 44.7c-4.6 21 8 40.8 33.6 53.1a94.9 94.9 0 0 0 14.5 5.7 114.5 114.5 0 0 0 32.8 5.5h5.2V93.2l-.9-.3-4.6-1.4C75.7 87.2 60.5 81.6 53.8 71s-6.4-21.3-1.5-31.7 13.9-17.8 25.1-21.6c2.7-.9 5.4-1.6 7.9-2.2l4-.9 5.5-1.1V0zm5.3 10.2a83.9 83.9 0 0 0-8.5 2.3C62.9 16.8 52.5 25.8 47.3 37s-5 26.2 1.8 36.9c8.1 12.7 25.4 18.7 40.2 23.3v6.3a110.6 110.6 0 0 1-44.6-10.6C36 88.7 8.1 73 14.1 45.9 16.7 34.3 25 26.4 31.5 21.7A87.7 87.7 0 0 1 72.9 6l6-.5h10.4V9c-1.7.4-3.5.7-5.2 1.2z" fill="#bd85ae"></path><path d="M32.6 100a65.3 65.3 0 0 1-20.9-19.6 46.9 46.9 0 0 1-6.2-12.2 48.2 48.2 0 0 1-2.3-16.7A104 104 0 0 1 4.1 41a39.1 39.1 0 0 1 1.4-5.4 45.4 45.4 0 0 1 4-8.4 55 55 0 0 1 3.6-5.1C18 16 25.1 10.3 33.3 5.5A91.1 91.1 0 0 1 43.7.4l-.2-.4h-4.6a95.4 95.4 0 0 0-10 5.5 71.8 71.8 0 0 0-17.6 15.2A47.1 47.1 0 0 0 7.6 26c-.8 1.3-1.5 2.5-2.1 3.7a36.6 36.6 0 0 0-3.6 10.9 88.3 88.3 0 0 0-1 10.9 47.4 47.4 0 0 0 4.6 22.8 50.7 50.7 0 0 0 4.3 7.4A67.6 67.6 0 0 0 31.4 102a24.9 24.9 0 0 0 2.8 1.5A72.2 72.2 0 0 0 48 109h9.3a88.9 88.9 0 0 1-17.8-5.5 55.8 55.8 0 0 1-6.9-3.5zM5.5 87.1a49.2 49.2 0 0 1-5.5-11V82a52.4 52.4 0 0 0 5.5 9.1 54.9 54.9 0 0 0 12.6 12.4 48.4 48.4 0 0 0 9.3 5.5h6.1a49.9 49.9 0 0 1-11.4-5.5A55.2 55.2 0 0 1 5.5 87.1zM5.5 99A36.2 36.2 0 0 1 0 90v5.1a39.5 39.5 0 0 0 5.5 7.4 9.4 9.4 0 0 0 1 1 35.6 35.6 0 0 0 6.8 5.5h4.5a35.6 35.6 0 0 1-8-5.5A36.8 36.8 0 0 1 5.5 99zM17.8 5.5A53.7 53.7 0 0 1 26.3 0h-4.6a51.7 51.7 0 0 0-7.5 5.5 54 54 0 0 0-8.7 9.2A53.9 53.9 0 0 0 0 23.5v5.8a51.6 51.6 0 0 1 5.5-10.7A56.6 56.6 0 0 1 17.8 5.5zM7.3 5.5a36.7 36.7 0 0 1 8-5.5h-4.6A36.4 36.4 0 0 0 0 10.7v4.8a28.1 28.1 0 0 1 5.5-8.2z" fill="#005c7d"></path></g></g></g></svg></svg> <!----></g></g></g></g><g transform="translate(39, 3.4176075049579495)"><g data-gra="path-name" fill="#005c7d" transform="scale(1)"><path d="M7.87-19.32L25.05-19.32L25.05-32.74L29.52-32.74L29.52 0L25.05 0L25.05-15.21L7.87-15.21L7.87 0L3.40 0L3.40-32.74L7.87-32.74L7.87-19.32Z" transform="translate(-3.399602385685885, 33.638170974155074)"></path></g></g><g transform="translate(69, 3.4176075049579495)"><g data-gra="path-name" fill="#005c7d" transform="scale(1)"><path d="M4.12-32.74L8.59-32.74L8.59 0L4.12 0L4.12-32.74Z" transform="translate(-4.11530815109344, 33.638170974155074)"></path></g></g><g transform="translate(77, 3.4176075049579495)"><g data-gra="path-name" fill="#005c7d" transform="scale(1)"><path d="M8.77-32.74L25.23-6.26L25.23-32.74L29.52-32.74L29.52 0L24.51 0L7.87-26.48L7.69-26.48L7.69 0L3.40 0L3.40-32.74L8.77-32.74Z" transform="translate(-3.399602385685885, 33.638170974155074)"></path></g></g><g transform="translate(107, 3.4176075049579495)"><g data-gra="path-name" fill="#005c7d" transform="scale(1)"><path d="M30.78-23.08L30.78-23.08L26.48-23.08Q24.87-29.70 17.36-29.88L17.36-29.88Q6.98-29.34 6.62-16.64L6.62-16.64Q6.62-3.04 17.53-3.04L17.53-3.04Q25.05-3.22 26.84-12.17L26.84-12.17L31.13-12.17Q29.17 0.18 16.64 0.54L16.64 0.54Q2.33 0 1.97-16.46L1.97-16.46Q2.68-32.92 17.36-33.64L17.36-33.64Q28.99-33.28 30.78-23.08Z" transform="translate(-1.9681908548707754, 33.638170974155074)"></path></g></g><g transform="translate(140, 3.4176075049579495)"><g data-gra="path-name" fill="#005c7d" transform="scale(1)"><path d="M29.34-16.28L29.34-16.28Q28.63-29.17 17.89-29.88L17.89-29.88Q6.98-29.34 6.44-16.28L6.44-16.28Q6.98-3.58 17.89-3.04L17.89-3.04Q28.63-3.76 29.34-16.28ZM33.82-16.28L33.82-16.28Q32.74 0 17.89 0.54L17.89 0.54Q2.86 0 1.79-16.28L1.79-16.28Q2.68-33.28 17.89-33.64L17.89-33.64Q32.74-33.10 33.82-16.28Z" transform="translate(-1.7892644135188864, 33.638170974155074)"></path></g></g></g> <!----></g><defs v-gra="od"></defs></svg>